HIERARCHY
ROOT hip
{
  OFFSET 44.954 85.9898 349.588
  CHANNELS 6 Xposition Yposition Zposition Zrotation Xrotation Yrotation
  JOINT abdomen
  {
    OFFSET 0 20.6881 -0.73152
    CHANNELS 3 Zrotation Xrotation Yrotation
    JOINT chest
    {
      OFFSET 0 11.7043 -0.48768
      CHANNELS 3 Zrotation Xrotation Yrotation
      JOINT neck
      {
        OFFSET 0 22.1894 -2.19456
        CHANNELS 3 Zrotation Xrotation Yrotation
        JOINT head
        {
          OFFSET -0.24384 7.07133 1.2192
          CHANNELS 3 Zrotation Xrotation Yrotation
          JOINT leftEye
          {
            OFFSET 4.14528 8.04674 8.04672
            CHANNELS 3 Zrotation Xrotation Yrotation
            End Site
            {
              OFFSET 1 0 0
            }
          }
          JOINT rightEye
          {
            OFFSET -3.6576 8.04674 8.04672
            CHANNELS 3 Zrotation Xrotation Yrotation
            End Site
            {
              OFFSET 1 0 0
            }
          }
        }
      }
      JOINT rCollar
      {
        OFFSET -2.68224 19.2634 -4.8768
        CHANNELS 3 Zrotation Xrotation Yrotation
        JOINT rShldr
        {
          OFFSET -8.77824 -1.95073 1.46304
          CHANNELS 3 Zrotation Xrotation Yrotation
          JOINT rForeArm
          {
            OFFSET -28.1742 -1.7115 0.48768
            CHANNELS 3 Zrotation Xrotation Yrotation
            JOINT rHand
            {
              OFFSET -22.5879 0.773209 7.07136
              CHANNELS 3 Zrotation Xrotation Yrotation
              JOINT rThumb1
              {
                OFFSET -1.2192 -0.487915 3.41376
                CHANNELS 3 Zrotation Xrotation Yrotation
                JOINT rThumb2
                {
                  OFFSET -3.37035 -0.52449 3.41376
                  CHANNELS 3 Zrotation Xrotation Yrotation
                  End Site
                  {
                    OFFSET -1.78271 -1.18214 1.43049
                  }
                }
              }
              JOINT rIndex1
              {
                OFFSET -7.75947 0.938293 5.60832
                CHANNELS 3 Zrotation Xrotation Yrotation
                JOINT rIndex2
                {
                  OFFSET -2.54057 -0.884171 1.56538
                  CHANNELS 3 Zrotation Xrotation Yrotation
                  End Site
                  {
                    OFFSET -1.62519 -0.234802 1.16502
                  }
                }
              }
              JOINT rMid1
              {
                OFFSET -8.24714 1.18213 3.41376
                CHANNELS 3 Zrotation Xrotation Yrotation
                JOINT rMid2
                {
                  OFFSET -3.10165 -0.590103 1.0647
                  CHANNELS 3 Zrotation Xrotation Yrotation
                  End Site
                  {
                    OFFSET -2.48547 -0.328903 0.83742
                  }
                }
              }
              JOINT rRing1
              {
                OFFSET -8.82822 0.546677 1.51678
                CHANNELS 3 Zrotation Xrotation Yrotation
                JOINT rRing2
                {
                  OFFSET -2.60934 -0.819778 -0.0198488
                  CHANNELS 3 Zrotation Xrotation Yrotation
                  End Site
                  {
                    OFFSET -2.33842 -0.294052 0.168128
                  }
                }
              }
              JOINT rPinky1
              {
                OFFSET -8.27202 -0.0477905 -0.4584
                CHANNELS 3 Zrotation Xrotation Yrotation
                JOINT rPinky2
                {
                  OFFSET -1.82734 -0.647385 -0.700984
                  CHANNELS 3 Zrotation Xrotation Yrotation
                  End Site
                  {
                    OFFSET -1.69225 -0.51767 -0.607171
                  }
                }
              }
            }
          }
        }
      }
      JOINT lCollar
      {
        OFFSET 2.68224 19.2634 -4.8768
        CHANNELS 3 Zrotation Xrotation Yrotation
        JOINT lShldr
        {
          OFFSET 8.77824 -1.95073 1.46304
          CHANNELS 3 Zrotation Xrotation Yrotation
          JOINT lForeArm
          {
            OFFSET 28.1742 -1.7115 0.48768
            CHANNELS 3 Zrotation Xrotation Yrotation
            JOINT lHand
            {
              OFFSET 22.5879 0.773209 7.07136
              CHANNELS 3 Zrotation Xrotation Yrotation
              JOINT lThumb1
              {
                OFFSET 1.2192 -0.487915 3.41376
                CHANNELS 3 Zrotation Xrotation Yrotation
                JOINT lThumb2
                {
                  OFFSET 3.37035 -0.52449 3.41376
                  CHANNELS 3 Zrotation Xrotation Yrotation
                  End Site
                  {
                    OFFSET 1.78271 -1.18214 1.43049
                  }
                }
              }
              JOINT lIndex1
              {
                OFFSET 7.75947 0.938293 5.60832
                CHANNELS 3 Zrotation Xrotation Yrotation
                JOINT lIndex2
                {
                  OFFSET 2.54057 -0.884171 1.56538
                  CHANNELS 3 Zrotation Xrotation Yrotation
                  End Site
                  {
                    OFFSET 1.62519 -0.234802 1.16502
                  }
                }
              }
              JOINT lMid1
              {
                OFFSET 8.24714 1.18213 3.41376
                CHANNELS 3 Zrotation Xrotation Yrotation
                JOINT lMid2
                {
                  OFFSET 3.10165 -0.590103 1.0647
                  CHANNELS 3 Zrotation Xrotation Yrotation
                  End Site
                  {
                    OFFSET 2.48547 -0.328903 0.83742
                  }
                }
              }
              JOINT lRing1
              {
                OFFSET 8.82822 0.546677 1.51678
                CHANNELS 3 Zrotation Xrotation Yrotation
                JOINT lRing2
                {
                  OFFSET 2.60934 -0.819778 -0.0198488
                  CHANNELS 3 Zrotation Xrotation Yrotation
                  End Site
                  {
                    OFFSET 2.33842 -0.294052 0.168128
                  }
                }
              }
              JOINT lPinky1
              {
                OFFSET 8.27202 -0.0477905 -0.4584
                CHANNELS 3 Zrotation Xrotation Yrotation
                JOINT lPinky2
                {
                  OFFSET 1.82734 -0.647385 -0.700984
                  CHANNELS 3 Zrotation Xrotation Yrotation
                  End Site
                  {
                    OFFSET 1.69225 -0.51767 -0.607171
                  }
                }
              }
            }
          }
        }
      }
    }
  }
  JOINT rButtock
  {
    OFFSET -8.77824 4.35084 1.2192
    CHANNELS 3 Zrotation Xrotation Yrotation
    JOINT rThigh
    {
      OFFSET 0 -1.70687 -2.19456
      CHANNELS 3 Zrotation Xrotation Yrotation
      JOINT rShin
      {
        OFFSET 0 -36.8199 0.73152
        CHANNELS 3 Zrotation Xrotation Yrotation
        JOINT rFoot
        {
          OFFSET 0.73152 -45.1104 -5.12064
          CHANNELS 3 Zrotation Xrotation Yrotation
          End Site
          {
            OFFSET -1.1221 -3.69964 12.103
          }
        }
      }
    }
  }
  JOINT lButtock
  {
    OFFSET 8.77824 4.35084 1.2192
    CHANNELS 3 Zrotation Xrotation Yrotation
    JOINT lThigh
    {
      OFFSET 0 -1.70687 -2.19456
      CHANNELS 3 Zrotation Xrotation Yrotation
      JOINT lShin
      {
        OFFSET 0 -36.8199 0.73152
        CHANNELS 3 Zrotation Xrotation Yrotation
        JOINT lFoot
        {
          OFFSET -0.73152 -45.1104 -5.12064
          CHANNELS 3 Zrotation Xrotation Yrotation
          End Site
          {
            OFFSET 1.1221 -3.69964 12.103
          }
        }
      }
    }
  }
}
MOTION
Frames:	7
Frame Time:	0.00833333
38.1765 84.3737 -152.813 0.788392 0.000540026 -0.0144447 -1.03702 -0.00414456 -0.0285993 -0.285906 -0.00382843 -0.0495302 7.42091e-015 0 -1.2424e-017 2.22328e-014 3.18055e-015 -3.72721e-017 -0 0 0 -0 0 0 3.82544e-015 6.21202e-018 9.93923e-017 8.10913e-014 4.72114e-016 1.19271e-015 1.34368e-012 -3.97569e-013 -9.54166e-015 1.53974e-011 4.27785e-013 0 3.63092e-011 5.84544e-014 -2.22639e-014 6.26935e-011 1.01778e-013 -4.45278e-014 3.63156e-011 6.24184e-014 -3.18055e-014 7.73091 5.47488 0.417314 3.63085e-011 5.83433e-014 -1.59028e-014 2.90554 0.965183 0.102902 3.63211e-011 5.86415e-014 -2.14687e-014 10.2786 0.731801 0.0259123 3.63046e-011 5.88403e-014 -2.22639e-014 2.22167 -0.733487 -0.20892 3.82802e-015 6.98852e-018 -9.93923e-017 7.59971e-014 5.71506e-016 -7.95139e-016 1.34781e-012 4.07111e-013 -2.8625e-014 1.53794e-011 -3.77591e-013 1.59028e-014 3.62867e-011 5.55273e-014 -3.18055e-014 6.26716e-011 8.90555e-014 -3.97569e-014 3.62798e-011 5.88403e-014 -1.59028e-014 -7.73091 5.47488 -0.417314 3.62858e-011 5.61567e-014 -2.22639e-014 -2.90554 0.965183 -0.102902 3.62759e-011 5.55603e-014 -2.14687e-014 -10.2786 0.731801 -0.0259123 3.62862e-011 5.64548e-014 -1.90833e-014 -2.22167 -0.733487 0.20892 -2.03217e-016 0 -3.88251e-019 -0.27308 -1.9197 -0.0125364 -0.00938329 -2.07854 -0.0775652 -0.513008 3.99654 0.140422 2.03217e-016 0 3.88251e-019 -1.30518 -5.55691 0.114037 -0.000202794 4.50978 -0.0271042 0.527627 1.04557 -0.0815848 
39.9607 82.8015 -157.428 1.09586 2.18631 10.2944 -1.97353 2.21934 -0.8489 0.253978 -1.6959 -0.285335 -0.0429909 -0.754201 -1.01407 0.763958 7.11641 -1.90206 -0 0 0 -0 0 0 3.66356e-014 -6.6228e-014 -1.52048e-013 20.2682 7.57617 2.31167 -7.13441 -4.15223 9.97814 0.0434485 -4.62652 -0.642581 5.8086e-010 2.89171e-010 -4.80147e-010 1.01253e-009 4.82288e-010 -8.24937e-010 5.80863e-010 2.89177e-010 -4.80159e-010 7.73091 5.47488 0.417314 5.80858e-010 2.89172e-010 -4.80144e-010 2.90554 0.965183 0.102902 5.8087e-010 2.89173e-010 -4.80146e-010 10.2786 0.731801 0.0259123 5.80855e-010 2.89173e-010 -4.80146e-010 2.22167 -0.733487 -0.20892 3.65949e-014 -6.62279e-014 -1.52242e-013 -22.186 13.9351 -1.47267 8.40342 -5.30105 -11.1219 -0.127033 -7.92027 1.07509 3.67419e-010 1.35685e-010 3.54683e-010 6.24468e-010 2.13994e-010 6.21629e-010 3.67412e-010 1.35687e-010 3.54696e-010 -7.73091 5.47488 -0.417314 3.67419e-010 1.35685e-010 3.54689e-010 -2.90554 0.965183 -0.102902 3.6741e-010 1.35685e-010 3.54688e-010 -10.2786 0.731801 -0.0259123 3.67419e-010 1.35686e-010 3.54688e-010 -2.22167 -0.733487 0.20892 -2.03217e-016 0 -3.88251e-019 -0.0896337 -9.74889 -0.84279 0.0255741 9.3618 0.111806 -0.462631 -3.74124 0.224435 2.03217e-016 0 3.88251e-019 -0.829356 -6.55084 -0.0908333 -0.116957 13.8717 -0.320101 1.09331 -9.76387 3.10926 
39.9527 82.7514 -156.022 0.579226 4.27186 21.2565 -2.8957 4.58299 -1.7164 0.817103 -3.48901 -0.533732 -0.1219 -1.55478 -2.09457 2.11074 14.6111 -4.02848 -0 0 0 -0 0 0 7.26611e-014 -1.38451e-013 -3.19751e-013 40.9912 15.5115 4.88874 -13.1233 -8.11993 20.6876 -0.0248991 -9.5182 -1.33634 1.19187e-009 5.95714e-010 -1.01076e-009 2.0781e-009 9.92607e-010 -1.73647e-009 1.19186e-009 5.95722e-010 -1.01078e-009 7.73091 5.47488 0.417314 1.19186e-009 5.95717e-010 -1.01076e-009 2.90554 0.965183 0.102902 1.19187e-009 5.95718e-010 -1.01076e-009 10.2786 0.731801 0.0259123 1.19186e-009 5.95718e-010 -1.01076e-009 2.22167 -0.733487 -0.20892 7.25745e-014 -1.38451e-013 -3.19938e-013 -44.7559 28.6581 -3.39619 15.0714 -10.2279 -23.1616 0.0741098 -16.2855 2.28236 7.35042e-010 2.91748e-010 7.41244e-010 1.24837e-009 4.61225e-010 1.29927e-009 7.35034e-010 2.91748e-010 7.41254e-010 -7.73091 5.47488 -0.417314 7.35042e-010 2.91747e-010 7.41246e-010 -2.90554 0.965183 -0.102902 7.35034e-010 2.91747e-010 7.41244e-010 -10.2786 0.731801 -0.0259123 7.35043e-010 2.91749e-010 7.41243e-010 -2.22167 -0.733487 0.20892 -2.03217e-016 0 -3.88251e-019 -0.159406 -18.0381 -1.78202 -0.0242279 21.4533 0.332143 -0.388311 -11.9271 0.302443 2.03217e-016 0 3.88251e-019 -0.337514 -7.63169 -0.316934 -0.126972 23.7797 -0.66739 3.08293 -21.0768 6.85531 
39.929 82.698 -154.617 -0.531315 5.71627 31.0607 -3.65449 6.66073 -2.50451 1.29182 -5.07968 -0.759554 -0.209075 -2.25977 -3.04431 3.79454 21.2516 -6.07685 -0 0 0 -0 0 0 1.02256e-013 -1.98697e-013 -4.56342e-013 58.8464 22.5742 7.44794 -17.219 -10.9465 30.4664 -0.188873 -13.8725 -1.97921 1.66996e-009 8.67397e-010 -1.4404e-009 2.9122e-009 1.44666e-009 -2.47472e-009 1.66996e-009 8.67406e-010 -1.44041e-009 7.73091 5.47488 0.417314 1.66996e-009 8.67401e-010 -1.4404e-009 2.90554 0.965183 0.102902 1.66997e-009 8.67402e-010 -1.4404e-009 10.2786 0.731801 0.0259123 1.66996e-009 8.67403e-010 -1.44039e-009 2.22167 -0.733487 -0.20892 1.02129e-013 -1.98698e-013 -4.56527e-013 -63.795 41.6752 -5.74507 19.2845 -13.5017 -34.2943 0.580024 -23.7257 3.48978 1.02968e-009 4.06945e-010 1.06411e-009 1.74806e-009 6.41804e-010 1.86497e-009 1.02968e-009 4.06944e-010 1.06412e-009 -7.73091 5.47488 -0.417314 1.02968e-009 4.06943e-010 1.06411e-009 -2.90554 0.965183 -0.102902 1.02968e-009 4.06944e-010 1.06411e-009 -10.2786 0.731801 -0.0259123 1.02969e-009 4.06946e-010 1.0641e-009 -2.22167 -0.733487 0.20892 -2.03217e-016 0 -3.88251e-019 -0.466765 -25.3851 -2.73062 -0.16211 32.2412 0.574576 -0.288849 -19.2164 0.414824 2.03217e-016 0 3.88251e-019 0.100747 -8.53837 -0.503302 -0.0148897 32.592 -1.04242 6.31666 -30.9606 10.9278 
39.9079 82.6414 -153.221 -1.57249 6.37691 37.8256 -4.14144 8.02899 -3.07957 1.57488 -6.16456 -0.926495 -0.258714 -2.72862 -3.66506 5.21158 25.8529 -7.57215 -0 0 0 -0 0 0 1.15773e-013 -2.29001e-013 -5.1515e-013 70.932 27.5983 9.49018 -19.4711 -12.3609 37.4109 -0.363166 -16.89 -2.44571 1.81578e-009 1.05193e-009 -1.61757e-009 3.1676e-009 1.76004e-009 -2.77977e-009 1.81577e-009 1.05194e-009 -1.61759e-009 7.73091 5.47488 0.417314 1.81578e-009 1.05193e-009 -1.61758e-009 2.90554 0.965183 0.102902 1.81579e-009 1.05194e-009 -1.61757e-009 10.2786 0.731801 0.0259123 1.81578e-009 1.05194e-009 -1.61757e-009 2.22167 -0.733487 -0.20892 1.1562e-013 -2.29001e-013 -5.15349e-013 -76.2393 50.5638 -7.87132 21.4308 -14.9252 -42.2777 1.14597 -28.8868 4.4472 1.14187e-009 4.19978e-010 1.22774e-009 1.93724e-009 6.55751e-010 2.15078e-009 1.14187e-009 4.19976e-010 1.22775e-009 -7.73091 5.47488 -0.417314 1.14188e-009 4.19975e-010 1.22774e-009 -2.90554 0.965183 -0.102902 1.14187e-009 4.19976e-010 1.22773e-009 -10.2786 0.731801 -0.0259123 1.14188e-009 4.19979e-010 1.22773e-009 -2.22167 -0.733487 0.20892 -2.03217e-016 0 -3.88251e-019 -0.820102 -30.3977 -3.49103 -0.33021 39.7715 0.790947 -0.155898 -24.2645 0.600124 2.03217e-016 0 3.88251e-019 0.422632 -9.00991 -0.587849 0.150452 38.6683 -1.36369 9.6198 -37.6726 14.4517 
39.929 82.6482 -151.806 -1.94423 6.47563 40.2774 -4.30231 8.40098 -3.35014 1.58376 -6.53646 -1.01146 -0.224365 -2.86207 -3.82155 5.69537 27.6707 -8.01686 -0 0 0 -0 0 0 1.04826e-013 -2.16958e-013 -4.65282e-013 75.687 29.8854 10.4375 -20.2476 -12.7793 40.1763 -0.44417 -18.0443 -2.62996 1.47321e-009 1.09828e-009 -1.41483e-009 2.57229e-009 1.84924e-009 -2.43273e-009 1.4732e-009 1.0983e-009 -1.41485e-009 7.73091 5.47488 0.417314 1.47321e-009 1.09829e-009 -1.41483e-009 2.90554 0.965183 0.102902 1.47321e-009 1.09829e-009 -1.41483e-009 10.2786 0.731801 0.0259123 1.47321e-009 1.09829e-009 -1.41482e-009 2.22167 -0.733487 -0.20892 1.04665e-013 -2.16954e-013 -4.65526e-013 -81.2418 53.8098 -8.2219 22.1604 -15.297 -45.5235 1.41945 -30.8713 4.85108 9.97655e-010 3.03093e-010 1.15251e-009 1.69042e-009 4.59883e-010 2.01711e-009 9.97648e-010 3.03091e-010 1.15252e-009 -7.73091 5.47488 -0.417314 9.97656e-010 3.0309e-010 1.15251e-009 -2.90554 0.965183 -0.102902 9.97649e-010 3.03091e-010 1.1525e-009 -10.2786 0.731801 -0.0259123 9.97658e-010 3.03093e-010 1.1525e-009 -2.22167 -0.733487 0.20892 -2.03217e-016 0 -3.88251e-019 -0.944081 -32.1502 -3.83131 -0.418381 42.7413 0.889367 0.00247937 -26.1774 0.874915 2.03217e-016 0 3.88251e-019 0.589463 -8.85627 -0.529364 0.235979 40.9038 -1.50534 11.1792 -40.313 15.9903 
39.9691 82.6156 -150.421 -1.74027 6.31015 39.6413 -4.24516 8.0628 -3.40031 1.40104 -6.3994 -1.03727 -0.12567 -2.7567 -3.64622 5.37559 27.5194 -7.63003 -0 0 0 -0 0 0 7.64974e-014 -1.74688e-013 -3.37776e-013 75.4155 30.2551 10.4742 -20.1838 -12.7609 39.9195 -0.43241 -17.869 -2.60197 7.82891e-010 1.04671e-009 -9.41974e-010 1.37128e-009 1.77961e-009 -1.62207e-009 7.82882e-010 1.04673e-009 -9.41993e-010 7.73091 5.47488 0.417314 7.82885e-010 1.04673e-009 -9.41975e-010 2.90554 0.965183 0.102902 7.82895e-010 1.04672e-009 -9.41969e-010 10.2786 0.731801 0.0259123 7.8289e-010 1.04672e-009 -9.41959e-010 2.22167 -0.733487 -0.20892 7.63419e-014 -1.74678e-013 -3.38089e-013 -81.4597 53.0516 -6.81545 22.1472 -15.3555 -45.3511 1.38178 -30.5957 4.79444 6.70331e-010 9.27846e-011 9.07421e-010 1.13224e-009 1.13031e-010 1.58513e-009 6.70327e-010 9.27841e-011 9.0743e-010 -7.73091 5.47488 -0.417314 6.70331e-010 9.27824e-011 9.0742e-010 -2.90554 0.965183 -0.102902 6.70325e-010 9.27831e-011 9.07414e-010 -10.2786 0.731801 -0.0259123 6.70335e-010 9.27853e-011 9.07406e-010 -2.22167 -0.733487 0.20892 -2.03217e-016 0 -3.88251e-019 -0.823826 -31.5795 -3.81893 -0.40983 42.4541 0.872346 0.15722 -25.8504 1.20268 2.03217e-016 0 3.88251e-019 0.643492 -8.25678 -0.369009 0.218607 40.3975 -1.48341 10.94 -40.1642 15.6906 
